<?xml version="1.0" encoding="UTF-8" standalone="no"?>
<!-- Created with Inkscape (http://www.inkscape.org/) -->

<svg
   xmlns:dc="http://purl.org/dc/elements/1.1/"
   xmlns:cc="http://creativecommons.org/ns#"
   xmlns:rdf="http://www.w3.org/1999/02/22-rdf-syntax-ns#"
   xmlns:svg="http://www.w3.org/2000/svg"
   xmlns="http://www.w3.org/2000/svg"
   xmlns:sodipodi="http://sodipodi.sourceforge.net/DTD/sodipodi-0.dtd"
   xmlns:inkscape="http://www.inkscape.org/namespaces/inkscape"
   version="1.1"
   id="svg1760"
   xml:space="preserve"
   width="300"
   height="500"
   viewBox="0 0 816 1056"
   sodipodi:docname="retro-circles-clipart-freesvg.org.svg"
   inkscape:version="0.92.4 (5da689c313, 2019-01-14)"><metadata
     id="metadata1766"><rdf:RDF><cc:Work
         rdf:about=""><dc:format>image/svg+xml</dc:format><dc:type
           rdf:resource="http://purl.org/dc/dcmitype/StillImage" /><dc:title></dc:title></cc:Work></rdf:RDF></metadata><defs
     id="defs1764"><clipPath
       clipPathUnits="userSpaceOnUse"
       id="clipPath1776"><path
         d="M 0,792 H 612 V 0 H 0 Z"
         id="path1774"
         inkscape:connector-curvature="0" /></clipPath><clipPath
       clipPathUnits="userSpaceOnUse"
       id="clipPath1812"><path
         d="M 388.605,88.6982 H 585.896 V -1.57031 H 388.605 Z"
         id="path1810"
         inkscape:connector-curvature="0" /></clipPath><clipPath
       clipPathUnits="userSpaceOnUse"
       id="clipPath1882"><path
         d="m 280.045,321.517 h 243.14 V 78.3916 h -243.14 z"
         id="path1880"
         inkscape:connector-curvature="0" /></clipPath></defs><sodipodi:namedview
     pagecolor="#ffffff"
     bordercolor="#666666"
     borderopacity="1"
     objecttolerance="10"
     gridtolerance="10"
     guidetolerance="10"
     inkscape:pageopacity="0"
     inkscape:pageshadow="2"
     inkscape:window-width="1920"
     inkscape:window-height="1018"
     id="namedview1762"
     showgrid="false"
     inkscape:zoom="0.68497703"
     inkscape:cx="436.27119"
     inkscape:cy="508.31766"
     inkscape:window-x="-8"
     inkscape:window-y="-8"
     inkscape:window-maximized="1"
     inkscape:current-layer="g1768" /><g
     id="g1768"
     inkscape:groupmode="layer"
     inkscape:label="abstract-99-publicdomainvectors.org [Converted]"
     transform="matrix(1.3333333,0,0,-1.3333333,0,1056)"><g
       id="g1770"><g
         id="g1772"
         clip-path="url(#clipPath1776)"><path
           d="M 612.074,257.296 C 569.634,328.776 478.898,358.076 401.84,322.459 319.576,284.443 283.566,186.586 321.593,104.291 359.602,22.046 457.466,-13.982 539.721,24.038 c 31.345,14.477 55.971,37.631 72.353,65.298 z"
           style="fill:#ff0000;fill-opacity:1;fill-rule:nonzero;stroke:none"
           id="path1778"
           inkscape:connector-curvature="0" /><path
           d="m 412.936,298.41 c 69.159,31.932 151.07,1.805 183.023,-67.335 C 627.887,161.964 597.746,80.06 528.601,48.114 459.508,16.173 377.572,46.313 345.667,115.408 313.714,184.547 343.85,266.464 412.936,298.41"
           style="fill:#3185fc;fill-opacity:1;fill-rule:nonzero;stroke:none"
           id="path1780"
           inkscape:connector-curvature="0" /><path
           d="m 506.371,96.231 c 42.483,19.635 61.067,70.163 41.46,112.595 -19.64,42.485 -70.155,61.076 -112.646,41.446 -42.39,-19.592 -61.026,-70.143 -41.393,-112.619 19.613,-42.44 70.179,-61.019 112.579,-41.422"
           style="fill:#ffc100;fill-opacity:1;fill-rule:nonzero;stroke:none"
           id="path1782"
           inkscape:connector-curvature="0" /><path
           d="M 612.074,305.623 C 541.069,263.044 512.021,172.634 547.517,95.808 561.865,64.745 584.735,40.278 612.074,23.895 Z"
           style="fill:#0a0903;fill-opacity:1;fill-rule:nonzero;stroke:none"
           id="path1784"
           inkscape:connector-curvature="0" /><path
           d="m 612.074,55.886 c -16.86,13.094 -30.923,30.311 -40.498,51.031 -27.429,59.375 -9.046,128.195 40.498,166.661 z"
           style="fill:#3185fc;fill-opacity:1;fill-rule:nonzero;stroke:none"
           id="path1786"
           inkscape:connector-curvature="0" /><path
           d="m 612.074,170.182 c -0.24,-3.668 -0.243,-7.367 0,-11.071 z"
           style="fill:#ffc100;fill-opacity:1;fill-rule:nonzero;stroke:none"
           id="path1788"
           inkscape:connector-curvature="0" /><path
           d="m 299.277,419.102 c 18.564,8.598 40.602,0.518 49.209,-18.105 8.58,-18.559 0.467,-40.626 -18.113,-49.198 -18.57,-8.592 -40.612,-0.459 -49.205,18.096 -8.606,18.623 -0.462,40.631 18.109,49.207"
           style="fill:#edf2f4;fill-opacity:1;fill-rule:nonzero;stroke:none"
           id="path1790"
           inkscape:connector-curvature="0" /><path
           d="m 324.561,364.395 c 11.593,5.36 16.695,19.178 11.325,30.793 -5.394,11.647 -19.186,16.693 -30.794,11.325 -11.608,-5.365 -16.696,-19.143 -11.321,-30.786 5.356,-11.602 19.187,-16.689 30.79,-11.332"
           style="fill:#ffc100;fill-opacity:1;fill-rule:nonzero;stroke:none"
           id="path1792"
           inkscape:connector-curvature="0" /><path
           d="m 348.695,368.068 c 18.425,8.514 40.267,0.522 48.761,-17.873 8.522,-18.44 0.495,-40.305 -17.95,-48.819 -18.417,-8.514 -40.225,-0.462 -48.746,17.979 -8.494,18.418 -0.492,40.2 17.935,48.713"
           style="fill:#edf2f4;fill-opacity:1;fill-rule:nonzero;stroke:none"
           id="path1794"
           inkscape:connector-curvature="0" /><path
           d="m 373.745,313.839 c 11.576,5.345 16.557,18.977 11.203,30.568 -5.278,11.46 -18.939,16.562 -30.489,11.206 -11.468,-5.295 -16.528,-19.038 -11.234,-30.509 5.346,-11.563 19.056,-16.553 30.52,-11.265"
           style="fill:#edf2f4;fill-opacity:1;fill-rule:nonzero;stroke:none"
           id="path1796"
           inkscape:connector-curvature="0" /><path
           d="m 612.074,291.845 c -4.064,-3.62 -8.723,-6.71 -13.917,-9.111 -28.396,-13.131 -62.066,-0.726 -75.183,27.66 -13.115,28.389 -0.742,62.066 27.671,75.184 21.082,9.741 45.097,5.41 61.429,-9.112 z"
           style="fill:#315fc;fill-opacity:1;fill-rule:nonzero;stroke:none"
           id="path1798"
           inkscape:connector-curvature="0" /><path
           d="m 589.288,301.947 c 17.761,8.225 25.513,29.332 17.296,47.09 -8.204,17.781 -29.264,25.481 -47.049,17.27 -17.773,-8.211 -25.499,-29.233 -17.3,-47 8.213,-17.766 29.265,-25.559 47.053,-17.36"
           style="fill:#ff0000;fill-opacity:1;fill-rule:nonzero;stroke:none"
           id="path1800"
           inkscape:connector-curvature="0" /><path
           d="m 275.809,341.42 c 28.384,13.106 62.068,0.728 75.209,-27.73 13.126,-28.425 0.703,-62.06 -27.67,-75.18 -28.45,-13.15 -62.097,-0.799 -75.237,27.638 -13.137,28.444 -0.754,62.12 27.698,75.272"
           style="fill:#ff0000;fill-opacity:1;fill-rule:nonzero;stroke:none"
           id="path1802"
           inkscape:connector-curvature="0" /><path
           d="m 314.454,257.737 c 17.723,8.195 25.461,29.331 17.284,47.066 -8.2,17.768 -29.31,25.527 -47.024,17.334 -17.766,-8.213 -25.584,-29.33 -17.377,-47.104 8.193,-17.727 29.361,-25.491 47.117,-17.296"
           style="fill:#0a0903;fill-opacity:1;fill-rule:nonzero;stroke:none"
           id="path1804"
           inkscape:connector-curvature="0" /><g
           id="g1806"><g
             id="g1808" /><g
             id="g1822"><g
               clip-path="url(#clipPath1812)"
               id="g1820"><path
                 d="m 394.973,-1.57 c 1.13,11.936 4.61,23.853 10.644,35.085 24.227,45.093 80.398,61.957 125.438,37.76 28.348,-15.229 45.574,-43.068 48.444,-72.845 H 548.402 C 545.688,17.168 534.425,34.431 516.448,44.088 486.423,60.22 448.979,48.922 432.844,18.887 429.317,12.322 427.099,5.403 426.098,-1.57 Z"
                 style="fill:#ff0000;fill-opacity:1;fill-rule:nonzero;stroke:none"
                 id="path1814"
                 inkscape:connector-curvature="0" /><path
                 d="M 585.896,-1.57 C 582.983,30.502 564.534,60.575 534.093,76.931 486.017,102.759 425.874,84.65 400.018,36.523 393.475,24.344 389.746,11.396 388.605,-1.57 H 401.5 c 1.1,10.912 4.312,21.785 9.813,32.025 22.478,41.843 74.876,57.64 116.706,35.169 26.125,-14.035 42.096,-39.709 44.965,-67.194 z"
                 style="fill:#3185fc;fill-opacity:1;fill-rule:nonzero;stroke:none"
                 id="path1816"
                 inkscape:connector-curvature="0" /><path
                 d="m 554.844,-1.57 c -2.752,21.044 -15.25,40.511 -35.358,51.314 -33.109,17.788 -74.526,5.359 -92.337,-27.798 -4.047,-7.533 -6.528,-15.498 -7.556,-23.516 h 13.066 c 0.954,5.93 2.897,11.804 5.897,17.389 14.432,26.865 47.969,37.001 74.831,22.571 15.789,-8.483 25.796,-23.539 28.463,-39.96 z"
                 style="fill:#3185fc;fill-opacity:1;fill-rule:nonzero;stroke:none"
                 id="path1818"
                 inkscape:connector-curvature="0" /></g></g></g><path
           d="m 496.561,77.157 c -5.425,2.914 -7.473,9.727 -4.559,15.154 2.919,5.429 9.728,7.484 15.154,4.569 5.428,-2.916 7.491,-9.737 4.574,-15.168 -2.914,-5.425 -9.741,-7.471 -15.169,-4.555"
           style="fill:#edf2f4;fill-opacity:1;fill-rule:nonzero;stroke:none"
           id="path1824"
           inkscape:connector-curvature="0" /><path
           d="m 505.165,93.17 c -3.387,1.818 -7.634,0.55 -9.461,-2.848 -1.819,-3.388 -0.535,-7.637 2.851,-9.456 3.401,-1.826 7.637,-0.546 9.457,2.844 1.826,3.397 0.554,7.634 -2.847,9.46"
           style="fill:#edf2f4;fill-opacity:1;fill-rule:nonzero;stroke:none"
           id="path1826"
           inkscape:connector-curvature="0" /><path
           d="m 516.605,66.389 c -5.425,2.915 -7.426,9.701 -4.512,15.128 2.919,5.43 9.683,7.509 15.109,4.594 5.425,-2.915 7.426,-9.703 4.509,-15.133 -2.915,-5.425 -9.68,-7.505 -15.106,-4.589"
           style="fill:#edf2f4;fill-opacity:1;fill-rule:nonzero;stroke:none"
           id="path1828"
           inkscape:connector-curvature="0" /><path
           d="m 525.207,82.401 c -3.384,1.82 -7.634,0.55 -9.458,-2.847 -1.822,-3.389 -0.536,-7.638 2.849,-9.456 3.386,-1.819 7.636,-0.546 9.458,2.843 1.824,3.398 0.538,7.641 -2.849,9.46"
           style="fill:#edf2f4;fill-opacity:1;fill-rule:nonzero;stroke:none"
           id="path1830"
           inkscape:connector-curvature="0" /><path
           d="m 554.641,-1.57 c 0.067,5.67 1.465,11.407 4.336,16.751 9.525,17.73 31.649,24.38 49.382,14.853 1.299,-0.697 2.537,-1.463 3.715,-2.289 V -1.57 Z"
           style="fill:#edf2f4;fill-opacity:1;fill-rule:nonzero;stroke:none"
           id="path1832"
           inkscape:connector-curvature="0" /><path
           d="m 612.074,-1.57 v 8.485 c -1.957,4.61 -5.428,8.603 -10.15,11.139 -11.137,5.983 -24.929,1.788 -30.907,-9.34 -1.759,-3.274 -2.636,-6.794 -2.71,-10.284 z"
           style="fill:#edf2f4;fill-opacity:1;fill-rule:nonzero;stroke:none"
           id="path1834"
           inkscape:connector-curvature="0" /><path
           d="m 317.51,-1.57 c -14.908,17.115 -18.501,42.348 -7.11,63.553 14.681,27.326 48.754,37.586 76.075,22.909 C 413.795,70.214 424.05,36.14 409.37,8.814 407.33,5.017 404.916,1.548 402.199,-1.57 Z"
           style="fill:#edf2f4;fill-opacity:1;fill-rule:nonzero;stroke:none"
           id="path1836"
           inkscape:connector-curvature="0" /><path
           d="m 376.51,66.342 c -17.103,9.187 -38.454,2.761 -47.615,-14.293 -9.184,-17.094 -2.782,-38.493 14.319,-47.681 17.101,-9.187 38.432,-2.686 47.614,14.406 9.163,17.054 2.782,38.381 -14.318,47.568"
           style="fill:#edf2f4;fill-opacity:1;fill-rule:nonzero;stroke:none"
           id="path1838"
           inkscape:connector-curvature="0" /><path
           d="m 439.607,115.449 c -27.321,14.678 -37.576,48.753 -22.898,76.075 14.681,27.325 48.749,37.576 76.069,22.899 27.321,-14.678 37.579,-48.745 22.901,-76.07 -14.678,-27.321 -48.751,-37.581 -76.072,-22.904"
           style="fill:#315fc;fill-opacity:1;fill-rule:nonzero;stroke:none"
           id="path1840"
           inkscape:connector-curvature="0" /><path
           d="m 482.841,195.921 c -17.103,9.188 -38.437,2.756 -47.623,-14.341 -9.187,-17.101 -2.749,-38.398 14.351,-47.585 17.103,-9.188 38.382,-2.782 47.569,14.319 9.185,17.097 2.802,38.42 -14.297,47.607"
           style="fill:#ff0000;fill-opacity:1;fill-rule:nonzero;stroke:none"
           id="path1842"
           inkscape:connector-curvature="0" /><path
           d="M 612.074,-1.57 V 149.652 C 578.489,154.996 543.663,138.99 526.688,107.394 505.981,68.85 519.26,21.003 556.108,-1.57 Z"
           style="fill:#ff0000;fill-opacity:1;fill-rule:nonzero;stroke:none"
           id="path1844"
           inkscape:connector-curvature="0" /><path
           d="m 612.074,0.786 c -15.015,-2.89 -31.084,-0.826 -45.606,6.976 -33.538,18.017 -46.126,59.813 -28.104,93.36 14.615,27.204 44.893,40.615 73.71,35.078 z"
           style="fill:#3185fc;fill-opacity:1;fill-rule:nonzero;stroke:none"
           id="path1846"
           inkscape:connector-curvature="0" /><path
           d="m 612.074,108.873 c -19.109,6.155 -40.533,-2.006 -50.359,-20.297 -11.077,-20.616 -3.316,-46.389 17.299,-57.464 10.546,-5.666 22.459,-6.394 33.06,-2.984 z"
           style="fill:#ffc100;fill-opacity:1;fill-rule:nonzero;stroke:none"
           id="path1848"
           inkscape:connector-curvature="0" /><path
           d="m 612.074,188.593 c -6.558,18.677 -19.823,35.056 -38.59,45.138 -39.914,21.443 -89.84,6.414 -111.296,-33.524 -21.443,-39.912 -6.411,-89.836 33.502,-111.278 39.913,-21.444 89.838,-6.417 111.282,33.496 2.021,3.763 3.718,7.615 5.102,11.523 z"
           style="fill:#0a0903;fill-opacity:1;fill-rule:nonzero;stroke:none"
           id="path1850"
           inkscape:connector-curvature="0" /><path
           d="m 501.965,100.607 c -33.523,18.01 -46.096,59.798 -28.086,93.321 18.026,33.553 59.808,46.134 93.33,28.125 33.537,-18.02 46.113,-59.803 28.087,-93.357 -18.01,-33.521 -59.793,-46.107 -93.331,-28.089"
           style="fill:#3185fc;fill-opacity:1;fill-rule:nonzero;stroke:none"
           id="path1852"
           inkscape:connector-curvature="0" /><path
           d="m 554.666,198.702 c -20.614,11.074 -46.371,3.278 -57.437,-17.32 -11.064,-20.593 -3.333,-46.351 17.28,-57.424 20.629,-11.083 46.374,-3.311 57.436,17.283 11.066,20.598 3.347,46.378 -17.279,57.461"
           style="fill:#ffc100;fill-opacity:1;fill-rule:nonzero;stroke:none"
           id="path1854"
           inkscape:connector-curvature="0" /><path
           d="m 490.25,36.57 c -13.765,7.395 -18.943,24.579 -11.545,38.351 7.402,13.778 24.592,18.947 38.356,11.553 13.778,-7.403 18.943,-24.58 11.54,-38.36 C 521.202,34.344 504.028,29.167 490.25,36.57"
           style="fill:#edf2f4;fill-opacity:1;fill-rule:nonzero;stroke:none"
           id="path1856"
           inkscape:connector-curvature="0" /><path
           d="m 512.049,77.144 c -8.624,4.631 -19.378,1.384 -24.009,-7.238 -4.631,-8.619 -1.39,-19.355 7.231,-23.987 8.623,-4.633 19.35,-1.399 23.979,7.219 4.632,8.622 1.42,19.374 -7.201,24.006"
           style="fill:#ff0000;fill-opacity:1;fill-rule:nonzero;stroke:none"
           id="path1858"
           inkscape:connector-curvature="0" /><path
           d="m 407.853,-1.57 c 30.671,84.352 1.933,182.203 -75.426,235.281 C 240.689,296.697 114.885,273.268 51.941,181.58 13.684,125.859 7.306,57.569 28.747,-1.57 Z"
           style="fill:#ff0000;fill-opacity:1;fill-rule:nonzero;stroke:none"
           id="path1860"
           inkscape:connector-curvature="0" /><path
           d="m 63.722,-1.57 c -23.139,51.975 -19.526,114.382 15.03,164.738 52.876,77.031 158.182,96.611 235.252,43.709 C 382.438,159.93 405.547,71.558 372.786,-1.57 Z"
           style="fill:#3185fc;fill-opacity:1;fill-rule:nonzero;stroke:none"
           id="path1862"
           inkscape:connector-curvature="0" /><path
           d="m 296.255,-1.57 c 2.789,3.156 5.415,6.516 7.857,10.076 32.467,47.31 20.348,112.305 -26.922,144.738 -47.359,32.498 -112.317,20.408 -144.78,-26.89 C 104.854,86.189 109.346,33.382 140.227,-1.57 Z"
           style="fill:#ffc100;fill-opacity:1;fill-rule:nonzero;stroke:none"
           id="path1864"
           inkscape:connector-curvature="0" /><path
           d="m 0.105,128.326 c 87.746,-41.087 195.138,-13.853 251.724,68.59 62.982,91.742 39.567,217.563 -52.143,280.507 -60.942,41.816 -136.961,45.506 -199.581,16.33 z"
           style="fill:#0a0903;fill-opacity:1;fill-rule:nonzero;stroke:none"
           id="path1866"
           inkscape:connector-curvature="0" /><path
           d="M 0.105,457.128 C 54.903,489.153 125.518,488.866 181.291,450.59 258.323,397.73 277.91,292.404 225.018,215.326 174.465,141.683 75.986,120.547 0.105,165.024 Z"
           style="fill:#3185fc;fill-opacity:1;fill-rule:nonzero;stroke:none"
           id="path1868"
           inkscape:connector-curvature="0" /><path
           d="M 0.105,251.547 C 7.083,241.508 15.958,232.541 26.625,225.219 73.997,192.721 138.87,204.83 171.343,252.15 203.827,299.473 191.85,364.417 144.46,396.947 97.305,429.312 32.734,417.368 0.105,370.516 Z"
           style="fill:#ffc100;fill-opacity:1;fill-rule:nonzero;stroke:none"
           id="path1870"
           inkscape:connector-curvature="0" /><path
           d="m 0.105,143.291 c 7.93,-1.94 15.648,-5.319 22.773,-10.209 C 54.543,111.363 62.577,68.066 40.861,36.422 30.802,21.769 16.118,12.171 0.105,8.247 Z"
           style="fill:#315fc;fill-opacity:1;fill-rule:nonzero;stroke:none"
           id="path1872"
           inkscape:connector-curvature="0" /><path
           d="m 0.105,35.555 c 7.544,3.102 14.304,8.364 19.272,15.595 13.588,19.809 8.604,46.905 -11.204,60.524 -2.58,1.768 -5.285,3.221 -8.068,4.365 z"
           style="fill:#ff0000;fill-opacity:1;fill-rule:nonzero;stroke:none"
           id="path1874"
           inkscape:connector-curvature="0" /><g
           id="g1876"><g
             id="g1878" /><g
             id="g1892"><g
               clip-path="url(#clipPath1882)"
               id="g1890"><path
                 d="m 398.311,275.689 c -41.803,-1.818 -74.258,-37.224 -72.437,-79.105 1.818,-41.793 37.223,-74.205 79.027,-72.385 41.803,1.819 74.277,37.182 72.46,78.975 -1.823,41.879 -37.248,74.334 -79.05,72.515 m -1.645,37.85 C 459.446,316.271 512.47,267.598 515.2,204.818 517.927,142.131 469.332,89.033 406.55,86.303 343.784,83.572 290.762,132.248 288.033,194.938 285.302,257.715 333.9,310.811 396.666,313.539"
                 style="fill:#ff0000;fill-opacity:1;fill-rule:nonzero;stroke:none"
                 id="path1884"
                 inkscape:connector-curvature="0" /><path
                 d="m 280.162,194.596 c 2.911,-66.916 59.738,-119 126.726,-116.088 66.997,2.916 119.088,59.736 116.18,126.652 -2.915,67.006 -59.747,119.154 -126.744,116.24 -66.989,-2.912 -119.076,-59.8 -116.162,-126.804 m 116.845,111.06 c 58.243,2.537 107.782,-42.871 110.316,-101.179 2.532,-58.219 -42.879,-107.713 -101.119,-110.248 -58.24,-2.534 -107.771,42.832 -110.305,101.052 -2.535,58.307 42.868,107.846 101.108,110.375"
                 style="fill:#3185fc;fill-opacity:1;fill-rule:nonzero;stroke:none"
                 id="path1886"
                 inkscape:connector-curvature="0" /><path
                 d="m 469.424,202.826 c 1.625,-37.387 -27.465,-69.051 -64.87,-70.678 -37.392,-1.627 -69.121,27.393 -70.747,64.78 -1.63,37.478 27.455,69.209 64.848,70.836 37.406,1.627 69.139,-27.459 70.769,-64.938 m -71.453,80.68 c -46.145,-2.008 -81.976,-41.111 -79.968,-87.266 2.003,-46.084 41.095,-81.976 87.243,-79.967 46.091,2.004 81.986,41.157 79.981,87.241 -2.007,46.154 -41.164,81.996 -87.256,79.992"
                 style="fill:#3185fc;fill-opacity:1;fill-rule:nonzero;stroke:none"
                 id="path1888"
                 inkscape:connector-curvature="0" /></g></g></g><path
           d="m 256.112,425.563 c 0.501,-11.515 -8.407,-21.235 -19.934,-21.735 -11.523,-0.503 -21.247,8.406 -21.747,19.921 -0.502,11.528 8.409,21.323 19.932,21.827 11.525,0.5 21.248,-8.486 21.749,-20.013"
           style="fill:#edf2f4;fill-opacity:1;fill-rule:nonzero;stroke:none"
           id="path1894"
           inkscape:connector-curvature="0" /><path
           d="m 222.236,424.09 c 0.313,-7.178 6.418,-12.78 13.602,-12.469 7.245,0.315 12.78,6.426 12.47,13.604 -0.314,7.175 -6.362,12.849 -13.606,12.535 -7.184,-0.315 -12.778,-6.492 -12.466,-13.67"
           style="fill:#edf2f4;fill-opacity:1;fill-rule:nonzero;stroke:none"
           id="path1896"
           inkscape:connector-curvature="0" /><path
           d="m 254.372,445.299 c 0.327,-7.554 -5.513,-13.985 -13.065,-14.314 -7.554,-0.327 -13.933,5.572 -14.26,13.126 -0.33,7.552 5.514,13.939 13.068,14.266 7.551,0.328 13.928,-5.525 14.257,-13.078"
           style="fill:#edf2f4;fill-opacity:1;fill-rule:nonzero;stroke:none"
           id="path1898"
           inkscape:connector-curvature="0" /><path
           d="m 232.144,444.332 c 0.207,-4.779 4.214,-8.399 8.937,-8.194 4.724,0.206 8.396,4.159 8.188,8.938 -0.206,4.735 -4.21,8.399 -8.933,8.194 -4.723,-0.206 -8.398,-4.206 -8.192,-8.938"
           style="fill:#edf2f4;fill-opacity:1;fill-rule:nonzero;stroke:none"
           id="path1900"
           inkscape:connector-curvature="0" /><path
           d="m 403.609,396.217 c 0.329,-7.55 -5.516,-13.938 -13.13,-14.27 -7.557,-0.33 -13.927,5.528 -14.257,13.08 -0.327,7.552 5.512,13.917 13.068,14.246 7.614,0.331 13.989,-5.502 14.319,-13.056"
           style="fill:#edf2f4;fill-opacity:1;fill-rule:nonzero;stroke:none"
           id="path1902"
           inkscape:connector-curvature="0" /><path
           d="m 381.325,395.249 c 0.204,-4.712 4.27,-8.395 8.933,-8.192 4.783,0.208 8.459,4.228 8.252,8.94 -0.203,4.712 -4.212,8.398 -8.998,8.191 -4.662,-0.204 -8.392,-4.227 -8.187,-8.939"
           style="fill:#edf2f4;fill-opacity:1;fill-rule:nonzero;stroke:none"
           id="path1904"
           inkscape:connector-curvature="0" /><path
           d="m 423.123,417.494 c 0.329,-7.553 -5.518,-13.918 -13.07,-14.246 -7.552,-0.329 -13.929,5.507 -14.258,13.059 -0.33,7.619 5.518,13.941 13.069,14.266 7.553,0.329 13.926,-5.46 14.259,-13.079"
           style="fill:#edf2f4;fill-opacity:1;fill-rule:nonzero;stroke:none"
           id="path1906"
           inkscape:connector-curvature="0" /><path
           d="m 400.895,416.527 c 0.205,-4.711 4.212,-8.375 8.936,-8.168 4.723,0.204 8.398,4.202 8.194,8.915 -0.207,4.734 -4.218,8.464 -8.939,8.257 -4.726,-0.203 -8.398,-4.267 -8.191,-9.004"
           style="fill:#edf2f4;fill-opacity:1;fill-rule:nonzero;stroke:none"
           id="path1908"
           inkscape:connector-curvature="0" /><path
           d="m 303.466,154.861 c 0.329,-7.55 -5.574,-13.984 -13.125,-14.314 -7.56,-0.326 -13.998,5.568 -14.326,13.121 -0.329,7.555 5.572,14.008 13.131,14.338 7.55,0.33 13.991,-5.59 14.32,-13.145"
           style="fill:#edf2f4;fill-opacity:1;fill-rule:nonzero;stroke:none"
           id="path1910"
           inkscape:connector-curvature="0" /><path
           d="m 281.177,153.893 c 0.205,-4.713 4.208,-8.397 8.938,-8.194 4.716,0.207 8.393,4.227 8.188,8.94 -0.208,4.732 -4.215,8.398 -8.933,8.191 -4.729,-0.205 -8.399,-4.203 -8.193,-8.937"
           style="fill:#edf2f4;fill-opacity:1;fill-rule:nonzero;stroke:none"
           id="path1912"
           inkscape:connector-curvature="0" /><path
           d="m 302.252,182.762 c 0.327,-7.553 -5.575,-13.92 -13.128,-14.25 -7.561,-0.328 -13.996,5.504 -14.324,13.056 -0.327,7.553 5.577,13.92 13.137,14.248 7.55,0.33 13.988,-5.503 14.315,-13.054"
           style="fill:#edf2f4;fill-opacity:1;fill-rule:nonzero;stroke:none"
           id="path1914"
           inkscape:connector-curvature="0" /><path
           d="m 279.964,181.791 c 0.205,-4.711 4.209,-8.398 8.937,-8.191 4.718,0.203 8.393,4.224 8.188,8.935 -0.206,4.713 -4.214,8.399 -8.932,8.195 -4.728,-0.209 -8.398,-4.226 -8.193,-8.939"
           style="fill:#edf2f4;fill-opacity:1;fill-rule:nonzero;stroke:none"
           id="path1916"
           inkscape:connector-curvature="0" /><path
           d="m 452.681,338.303 c 1.084,-24.883 -18.188,-45.949 -43.117,-47.033 -24.873,-1.081 -45.963,18.23 -47.046,43.111 -1.081,24.859 18.253,45.953 43.125,47.033 24.929,1.086 45.957,-18.25 47.038,-43.111"
           style="fill:#edf2f4;fill-opacity:1;fill-rule:nonzero;stroke:none"
           id="path1918"
           inkscape:connector-curvature="0" /><path
           d="m 379.396,335.117 c 0.676,-15.549 13.877,-27.66 29.433,-26.982 15.611,0.679 27.656,13.888 26.979,29.433 -0.675,15.547 -13.822,27.661 -29.432,26.981 -15.556,-0.678 -27.656,-13.887 -26.98,-29.432"
           style="fill:#ffc100;fill-opacity:1;fill-rule:nonzero;stroke:none"
           id="path1920"
           inkscape:connector-curvature="0" /><path
           d="m 372.391,306.242 c 1.073,-24.683 -18.016,-45.59 -42.699,-46.664 -24.678,-1.072 -45.57,18.094 -46.645,42.776 -1.072,24.662 18.08,45.505 42.757,46.578 24.686,1.074 45.513,-18.03 46.587,-42.69"
           style="fill:#edf2f4;fill-opacity:1;fill-rule:nonzero;stroke:none"
           id="path1922"
           inkscape:connector-curvature="0" /><path
           d="m 299.722,303.08 c 0.674,-15.5 13.751,-27.418 29.24,-26.744 15.365,0.668 27.411,13.678 26.736,29.178 -0.666,15.349 -13.802,27.394 -29.167,26.728 -15.491,-0.676 -27.476,-13.812 -26.809,-29.162"
           style="fill:#edf2f4;fill-opacity:1;fill-rule:nonzero;stroke:none"
           id="path1924"
           inkscape:connector-curvature="0" /><path
           d="m 376.008,-1.57 c -6.854,10.174 -11.076,22.304 -11.649,35.453 -1.653,38.027 27.859,70.217 65.892,71.873 38.087,1.656 70.283,-27.852 71.937,-65.879 0.666,-15.296 -3.711,-29.648 -11.661,-41.447 z"
           style="fill:#edf2f4;fill-opacity:1;fill-rule:nonzero;stroke:none"
           id="path1926"
           inkscape:connector-curvature="0" /><path
           d="m 452.904,-1.57 c 14.576,7.464 24.29,22.927 23.534,40.328 -1.035,23.803 -21.273,42.224 -45.064,41.189 -23.737,-1.031 -42.232,-21.14 -41.195,-44.941 0.699,-16.07 10.122,-29.722 23.474,-36.576 z"
           style="fill:#edf2f4;fill-opacity:1;fill-rule:nonzero;stroke:none"
           id="path1928"
           inkscape:connector-curvature="0" /><path
           d="M 298.797,70.762 C 300.451,32.736 270.938,0.545 232.91,-1.111 194.878,-2.764 162.694,26.744 161.039,64.77 c -1.654,38.025 27.848,70.216 65.881,71.873 38.026,1.654 70.222,-27.854 71.877,-65.881"
           style="fill:#315fc;fill-opacity:1;fill-rule:nonzero;stroke:none"
           id="path1930"
           inkscape:connector-curvature="0" /><path
           d="m 186.79,65.891 c 1.035,-23.803 21.203,-42.274 45,-41.241 23.802,1.038 42.231,21.188 41.194,44.989 -1.035,23.802 -21.14,42.234 -44.942,41.197 -23.798,-1.035 -42.287,-21.145 -41.252,-44.945"
           style="fill:#ff0000;fill-opacity:1;fill-rule:nonzero;stroke:none"
           id="path1932"
           inkscape:connector-curvature="0" /><path
           d="m 612.074,137.45 c -2.916,-0.509 -5.897,-0.836 -8.933,-0.968 -38.029,-1.652 -70.224,27.854 -71.879,65.881 -1.655,38.094 27.855,70.283 65.882,71.938 5.101,0.221 10.098,-0.117 14.93,-0.962 z"
           style="fill:#edf2f4;fill-opacity:1;fill-rule:nonzero;stroke:none"
           id="path1934"
           inkscape:connector-curvature="0" /><path
           d="m 612.074,246.917 c -4.37,1.265 -9.015,1.853 -13.81,1.644 -23.803,-1.036 -42.291,-21.274 -41.255,-45.081 1.03,-23.734 21.206,-42.203 45.007,-41.169 3.482,0.151 6.85,0.711 10.058,1.633 z"
           style="fill:#edf2f4;fill-opacity:1;fill-rule:nonzero;stroke:none"
           id="path1936"
           inkscape:connector-curvature="0" /><path
           d="m 376.04,400.623 c 1.654,-38.027 -27.852,-70.217 -65.947,-71.875 -38.093,-1.656 -70.218,27.853 -71.871,65.879 -1.658,38.094 27.783,70.292 65.876,71.951 38.093,1.656 70.284,-27.861 71.942,-65.955"
           style="fill:#ff0000;fill-opacity:1;fill-rule:nonzero;stroke:none"
           id="path1938"
           inkscape:connector-curvature="0" /><path
           d="m 263.974,395.747 c 1.031,-23.735 21.258,-42.204 44.996,-41.171 23.802,1.034 42.29,21.187 41.258,44.924 -1.036,23.803 -21.207,42.36 -45.01,41.326 -23.736,-1.033 -42.281,-21.275 -41.244,-45.079"
           style="fill:#0a0903;fill-opacity:1;fill-rule:nonzero;stroke:none"
           id="path1940"
           inkscape:connector-curvature="0" /><path
           d="m 612.074,454.709 c -4.788,0.485 -9.668,0.632 -14.614,0.417 -55.556,-2.417 -98.788,-49.589 -96.374,-105.144 2.42,-55.597 49.585,-98.814 105.138,-96.398 1.965,0.086 3.917,0.227 5.85,0.423 z"
           style="fill:#ff0000;fill-opacity:1;fill-rule:nonzero;stroke:none"
           id="path1942"
           inkscape:connector-curvature="0" /><path
           d="m 612.074,270.37 c -2.159,-0.26 -4.345,-0.44 -6.553,-0.536 -46.667,-2.029 -86.15,34.154 -88.182,80.855 -2.029,46.659 34.163,86.157 80.827,88.186 4.72,0.206 9.366,0.02 13.908,-0.527 z"
           style="fill:#3185fc;fill-opacity:1;fill-rule:nonzero;stroke:none"
           id="path1944"
           inkscape:connector-curvature="0" /><path
           d="m 612.074,405.392 c -4.026,0.807 -8.211,1.146 -12.493,0.96 -28.663,-1.247 -50.982,-25.623 -49.737,-54.248 1.249,-28.69 25.597,-51.018 54.26,-49.77 2.719,0.118 5.38,0.444 7.97,0.961 z"
           style="fill:#ffc100;fill-opacity:1;fill-rule:nonzero;stroke:none"
           id="path1946"
           inkscape:connector-curvature="0" /><path
           d="m 612.074,302.785 c -18.995,17.213 -44.501,27.258 -72.07,26.059 -55.578,-2.418 -98.813,-49.59 -96.398,-105.145 2.417,-55.553 49.584,-98.795 105.162,-96.377 24.428,1.064 46.475,10.779 63.306,26.055 z"
           style="fill:#0a0903;fill-opacity:1;fill-rule:nonzero;stroke:none"
           id="path1948"
           inkscape:connector-curvature="0" /><path
           d="m 612.074,177.351 c -14.678,-19.559 -37.678,-32.632 -64.012,-33.779 -46.688,-2.029 -86.18,34.176 -88.209,80.834 -2.029,46.658 34.169,86.157 80.857,88.188 28.971,1.26 55.171,-12.21 71.364,-33.769 z"
           style="fill:#3185fc;fill-opacity:1;fill-rule:nonzero;stroke:none"
           id="path1950"
           inkscape:connector-curvature="0" /><path
           d="m 492.362,225.82 c 1.249,-28.691 25.626,-50.994 54.284,-49.746 28.667,1.246 50.989,25.578 49.74,54.272 -1.245,28.689 -25.593,50.972 -54.264,49.724 -28.657,-1.246 -51.006,-25.558 -49.76,-54.25"
           style="fill:#ffc100;fill-opacity:1;fill-rule:nonzero;stroke:none"
           id="path1952"
           inkscape:connector-curvature="0" /><path
           d="m 147.521,264.074 c 2.418,-55.576 49.596,-98.814 105.15,-96.398 55.587,2.418 98.822,49.59 96.402,105.166 -2.415,55.554 -49.582,98.793 -105.169,96.377 -55.554,-2.416 -98.799,-49.588 -96.383,-105.145"
           style="fill:#ff0000;fill-opacity:1;fill-rule:nonzero;stroke:none"
           id="path1954"
           inkscape:connector-curvature="0" /><path
           d="m 332.819,272.133 c 2.031,-46.678 -34.164,-86.174 -80.856,-88.205 -46.663,-2.032 -86.149,34.174 -88.18,80.853 -2.031,46.682 34.164,86.157 80.827,88.188 46.693,2.031 86.178,-34.151 88.209,-80.836"
           style="fill:#3185fc;fill-opacity:1;fill-rule:nonzero;stroke:none"
           id="path1956"
           inkscape:connector-curvature="0" /><path
           d="m 196.289,266.195 c 1.249,-28.689 25.593,-51.013 54.262,-49.767 28.696,1.248 51.014,25.601 49.766,54.293 -1.246,28.648 -25.596,50.994 -54.294,49.748 -28.667,-1.248 -50.98,-25.627 -49.734,-54.274"
           style="fill:#ffc100;fill-opacity:1;fill-rule:nonzero;stroke:none"
           id="path1958"
           inkscape:connector-curvature="0" /><path
           d="M 90.046,137.793 C 92.465,82.238 139.635,39 195.223,41.418 c 55.553,2.414 98.788,49.588 96.371,105.141 -2.415,55.552 -49.583,98.795 -105.137,96.377 -55.586,-2.418 -98.826,-49.59 -96.411,-105.143"
           style="fill:#0a0903;fill-opacity:1;fill-rule:nonzero;stroke:none"
           id="path1960"
           inkscape:connector-curvature="0" /><path
           d="M 275.339,145.852 C 277.368,99.193 241.173,59.719 194.515,57.689 147.813,55.656 108.333,91.84 106.303,138.5 c -2.029,46.68 34.159,86.156 80.862,88.186 46.658,2.031 86.144,-34.153 88.174,-80.834"
           style="fill:#3185fc;fill-opacity:1;fill-rule:nonzero;stroke:none"
           id="path1962"
           inkscape:connector-curvature="0" /><path
           d="m 138.803,139.914 c 1.248,-28.691 25.629,-50.971 54.299,-49.725 28.663,1.247 50.984,25.559 49.736,54.249 -1.249,28.714 -25.596,50.996 -54.259,49.748 -28.67,-1.248 -51.023,-25.561 -49.776,-54.272"
           style="fill:#ffc100;fill-opacity:1;fill-rule:nonzero;stroke:none"
           id="path1964"
           inkscape:connector-curvature="0" /><path
           d="m 427.828,308.564 c 0.545,-12.55 -9.173,-23.187 -21.741,-23.734 -12.539,-0.545 -23.18,9.207 -23.725,21.756 -0.545,12.531 9.208,23.17 21.747,23.715 12.569,0.547 23.172,-9.207 23.719,-21.737"
           style="fill:#edf2f4;fill-opacity:1;fill-rule:nonzero;stroke:none"
           id="path1966"
           inkscape:connector-curvature="0" /><path
           d="m 390.88,306.957 c 0.339,-7.838 6.993,-13.947 14.837,-13.605 7.872,0.341 13.939,7.003 13.599,14.843 -0.34,7.84 -6.964,13.926 -14.837,13.584 -7.842,-0.341 -13.942,-6.982 -13.599,-14.822"
           style="fill:#ffc100;fill-opacity:1;fill-rule:nonzero;stroke:none"
           id="path1968"
           inkscape:connector-curvature="0" /><path
           d="m 387.343,292.398 c 0.542,-12.462 -9.082,-22.984 -21.522,-23.527 -12.447,-0.539 -22.982,9.106 -23.522,21.568 -0.542,12.44 9.116,22.944 21.562,23.485 12.439,0.539 22.942,-9.086 23.482,-21.526"
           style="fill:#edf2f4;fill-opacity:1;fill-rule:nonzero;stroke:none"
           id="path1970"
           inkscape:connector-curvature="0" /><path
           d="m 350.714,290.803 c 0.341,-7.817 6.928,-13.836 14.74,-13.498 7.738,0.336 13.817,6.912 13.478,14.726 -0.336,7.731 -6.967,13.817 -14.705,13.481 -7.811,-0.34 -13.849,-6.981 -13.513,-14.709"
           style="fill:#edf2f4;fill-opacity:1;fill-rule:nonzero;stroke:none"
           id="path1972"
           inkscape:connector-curvature="0" /><path
           d="m 350.238,173.664 c 0.834,-19.158 -14.045,-35.402 -33.214,-36.236 -19.177,-0.834 -35.412,14.056 -36.246,33.215 -0.833,19.177 14.048,35.4 33.226,36.234 19.169,0.834 35.4,-14.035 36.234,-33.213"
           style="fill:#edf2f4;fill-opacity:1;fill-rule:nonzero;stroke:none"
           id="path1974"
           inkscape:connector-curvature="0" /><path
           d="m 293.765,171.209 c 0.524,-12.004 10.694,-21.311 22.694,-20.787 11.997,0.521 21.29,10.676 20.769,22.676 -0.523,12 -10.663,21.289 -22.657,20.763 -12.001,-0.519 -21.328,-10.654 -20.806,-22.652"
           style="fill:#ff0000;fill-opacity:1;fill-rule:nonzero;stroke:none"
           id="path1976"
           inkscape:connector-curvature="0" /><path
           d="m 389.189,339.975 c 0.833,-19.155 -14.045,-35.399 -33.259,-36.235 -19.199,-0.836 -35.399,14.057 -36.233,33.213 -0.837,19.221 14.011,35.443 33.211,36.277 19.212,0.838 35.445,-14.031 36.281,-33.255"
           style="fill:#ff0000;fill-opacity:1;fill-rule:nonzero;stroke:none"
           id="path1978"
           inkscape:connector-curvature="0" /><path
           d="m 332.678,337.516 c 0.519,-11.955 10.725,-21.284 22.688,-20.764 12.001,0.521 21.324,10.701 20.806,22.656 -0.525,12.002 -10.697,21.356 -22.697,20.832 -11.963,-0.519 -21.32,-10.724 -20.797,-22.724"
           style="fill:#0a0903;fill-opacity:1;fill-rule:nonzero;stroke:none"
           id="path1980"
           inkscape:connector-curvature="0" /></g></g></g></svg>